{"accessors":[{"bufferView":0,"byteOffset":0,"componentType":5126,"count":1686,"max":[0.05,0.05,0.046651],"min":[-0.05,-0.05,-0.05],"normalized":false,"type":"VEC3"},{"bufferView":1,"byteOffset":0,"componentType":5126,"count":1686,"max":[0.999969,0.989115,0.999969,1],"min":[-0.999969,-0.327,-0.999872,1],"normalized":false,"type":"VEC4"},{"bufferView":2,"byteOffset":0,"componentType":5126,"count":1686,"max":[1,1,0.927702],"min":[-1,-1,-1],"normalized":false,"type":"VEC3"},{"bufferView":3,"byteOffset":0,"componentType":5126,"count":1686,"max":[1,1],"min":[0,0],"normalized":false,"type":"VEC2"},{"bufferView":4,"byteOffset":0,"componentType":5125,"count":1686,"max":[1685],"min":[0],"normalized":false,"type":"SCALAR"},{"bufferView":5,"byteOffset":0,"componentType":5126,"count":93,"max":[0.007,0.007,0.048908],"min":[-0.007,-0.007,0.004306],"normalized":false,"type":"VEC3"},{"bufferView":6,"byteOffset":0,"componentType":5126,"count":93,"max":[0.999969,0.999872,0.619286,1],"min":[-0.999969,-0.997748,-0.301099,-1],"normalized":false,"type":"VEC4"},{"bufferView":7,"byteOffset":0,"componentType":5126,"count":93,"max":[0.999969,0.999969,1],"min":[-0.999969,-0.925087,-0.970517],"normalized":false,"type":"VEC3"},{"bufferView":8,"byteOffset":0,"componentType":5126,"count":93,"max":[1,0.5],"min":[0,0],"normalized":false,"type":"VEC2"},{"bufferView":9,"byteOffset":0,"componentType":5125,"count":93,"max":[92],"min":[0],"normalized":false,"type":"SCALAR"},{"bufferView":10,"byteOffset":0,"componentType":5126,"count":531,"max":[0.023325,0.022056,0.058],"min":[-0.022056,-0.024148,0.008],"normalized":false,"type":"VEC3"},{"bufferView":11,"byteOffset":0,"componentType":5126,"count":531,"max":[0.999969,0.529498,0.923334,1],"min":[-0.999837,-0.557857,-0.937946,1],"normalized":false,"type":"VEC4"},{"bufferView":12,"byteOffset":0,"componentType":5126,"count":531,"max":[0.88822,0.863969,1],"min":[-0.860894,-0.904614,-0.999837],"normalized":false,"type":"VEC3"},{"bufferView":13,"byteOffset":0,"componentType":5126,"count":531,"max":[1,0.916504],"min":[0,0.153076],"normalized":false,"type":"VEC2"},{"bufferView":14,"byteOffset":0,"componentType":5125,"count":531,"max":[530],"min":[0],"normalized":false,"type":"SCALAR"}],"asset":{"generator":"Godot Engine v3.5.1.stable.official@6fed1ffa313c6760fa88b368ae580378daaef0f0","version":"2.0"},"bufferViews":[{"buffer":0,"byteLength":20232,"byteOffset":0},{"buffer":0,"byteLength":26976,"byteOffset":20232},{"buffer":0,"byteLength":20232,"byteOffset":47208},{"buffer":0,"byteLength":13488,"byteOffset":67440},{"buffer":0,"byteLength":6744,"byteOffset":80928},{"buffer":0,"byteLength":1116,"byteOffset":87672},{"buffer":0,"byteLength":1488,"byteOffset":88788},{"buffer":0,"byteLength":1116,"byteOffset":90276},{"buffer":0,"byteLength":744,"byteOffset":91392},{"buffer":0,"byteLength":372,"byteOffset":92136},{"buffer":0,"byteLength":6372,"byteOffset":92508},{"buffer":0,"byteLength":8496,"byteOffset":98880},{"buffer":0,"byteLength":6372,"byteOffset":107376},{"buffer":0,"byteLength":4248,"byteOffset":113748},{"buffer":0,"byteLength":2124,"byteOffset":117996}],"buffers":[{"byteLength":120120,"uri":"giant_eyeball0.bin"}],"extensionsRequired":["KHR_texture_transform"],"extensionsUsed":["KHR_lights_punctual","KHR_texture_transform"],"meshes":[{"extras":{"targetNames":[]},"primitives":[{"attributes":{"NORMAL":2,"POSITION":0,"TANGENT":1,"TEXCOORD_0":3},"indices":4,"mode":4},{"attributes":{"NORMAL":7,"POSITION":5,"TANGENT":6,"TEXCOORD_0":8},"indices":9,"mode":4},{"attributes":{"NORMAL":12,"POSITION":10,"TANGENT":11,"TEXCOORD_0":13},"indices":14,"mode":4}]}],"nodes":[{"children":[1,2],"extensions":{},"mesh":0,"name":"eyeball2","scale":[6,6,6]},{"extensions":{},"name":"pupil","rotation":[0.707107,0,0,0.707107],"translation":[0,0,0.054306]},{"extensions":{},"name":"lens","translation":[0,0,0.033]}],"scene":0,"scenes":[{"nodes":[0]}]}