{"accessors":[{"bufferView":0,"byteOffset":0,"componentType":5126,"count":9375,"max":[13.734,11.40017,12.423241],"min":[-13.734,-6.62983,-16.75058],"normalized":false,"type":"VEC3"},{"bufferView":1,"byteOffset":0,"componentType":5126,"count":9375,"max":[0.999969,0.991934,0.999969,1],"min":[-0.999969,-0.999872,-1,-1],"normalized":false,"type":"VEC4"},{"bufferView":2,"byteOffset":0,"componentType":5126,"count":9375,"max":[1,1,1],"min":[-1,-1,-1],"normalized":false,"type":"VEC3"},{"bufferView":3,"byteOffset":0,"componentType":5126,"count":9375,"max":[1,1],"min":[0,0],"normalized":false,"type":"VEC2"},{"bufferView":4,"byteOffset":0,"componentType":5125,"count":9375,"max":[9374],"min":[0],"normalized":false,"type":"SCALAR"},{"bufferView":5,"byteOffset":0,"componentType":5126,"count":36,"max":[0.05,1,0.05],"min":[-0.05,-1,-0.05],"normalized":false,"type":"VEC3"},{"bufferView":6,"byteOffset":0,"componentType":5126,"count":36,"max":[0,0,0.015998,-1],"min":[-0.999969,-0.999872,-1,-1],"normalized":false,"type":"VEC4"},{"bufferView":7,"byteOffset":0,"componentType":5126,"count":36,"max":[1,1,1],"min":[-1,-1,-1],"normalized":false,"type":"VEC3"},{"bufferView":8,"byteOffset":0,"componentType":5126,"count":36,"max":[1,1],"min":[0,0],"normalized":false,"type":"VEC2"},{"bufferView":9,"byteOffset":0,"componentType":5125,"count":36,"max":[35],"min":[0],"normalized":false,"type":"SCALAR"},{"bufferView":10,"byteOffset":0,"componentType":5126,"count":36,"max":[0.05,1,0.05],"min":[-0.05,-1,-0.05],"normalized":false,"type":"VEC3"},{"bufferView":11,"byteOffset":0,"componentType":5126,"count":36,"max":[0,0,0.015998,-1],"min":[-0.999969,-0.999872,-1,-1],"normalized":false,"type":"VEC4"},{"bufferView":12,"byteOffset":0,"componentType":5126,"count":36,"max":[1,1,1],"min":[-1,-1,-1],"normalized":false,"type":"VEC3"},{"bufferView":13,"byteOffset":0,"componentType":5126,"count":36,"max":[1,1],"min":[0,0],"normalized":false,"type":"VEC2"},{"bufferView":14,"byteOffset":0,"componentType":5125,"count":36,"max":[35],"min":[0],"normalized":false,"type":"SCALAR"},{"bufferView":15,"byteOffset":0,"componentType":5126,"count":36,"max":[0.05,0.5,0.05],"min":[-0.05,-0.5,-0.05],"normalized":false,"type":"VEC3"},{"bufferView":16,"byteOffset":0,"componentType":5126,"count":36,"max":[0,0,0.015998,-1],"min":[-0.999969,-0.999872,-1,-1],"normalized":false,"type":"VEC4"},{"bufferView":17,"byteOffset":0,"componentType":5126,"count":36,"max":[1,1,1],"min":[-1,-1,-1],"normalized":false,"type":"VEC3"},{"bufferView":18,"byteOffset":0,"componentType":5126,"count":36,"max":[1,1],"min":[0,0],"normalized":false,"type":"VEC2"},{"bufferView":19,"byteOffset":0,"componentType":5125,"count":36,"max":[35],"min":[0],"normalized":false,"type":"SCALAR"},{"bufferView":20,"byteOffset":0,"componentType":5126,"count":36,"max":[0.05,0.5,0.05],"min":[-0.05,-0.5,-0.05],"normalized":false,"type":"VEC3"},{"bufferView":21,"byteOffset":0,"componentType":5126,"count":36,"max":[0,0,0.015998,-1],"min":[-0.999969,-0.999872,-1,-1],"normalized":false,"type":"VEC4"},{"bufferView":22,"byteOffset":0,"componentType":5126,"count":36,"max":[1,1,1],"min":[-1,-1,-1],"normalized":false,"type":"VEC3"},{"bufferView":23,"byteOffset":0,"componentType":5126,"count":36,"max":[1,1],"min":[0,0],"normalized":false,"type":"VEC2"},{"bufferView":24,"byteOffset":0,"componentType":5125,"count":36,"max":[35],"min":[0],"normalized":false,"type":"SCALAR"},{"bufferView":25,"byteOffset":0,"componentType":5126,"count":36,"max":[0.05,0.5,0.05],"min":[-0.05,-0.5,-0.05],"normalized":false,"type":"VEC3"},{"bufferView":26,"byteOffset":0,"componentType":5126,"count":36,"max":[0,0,0.015998,-1],"min":[-0.999969,-0.999872,-1,-1],"normalized":false,"type":"VEC4"},{"bufferView":27,"byteOffset":0,"componentType":5126,"count":36,"max":[1,1,1],"min":[-1,-1,-1],"normalized":false,"type":"VEC3"},{"bufferView":28,"byteOffset":0,"componentType":5126,"count":36,"max":[1,1],"min":[0,0],"normalized":false,"type":"VEC2"},{"bufferView":29,"byteOffset":0,"componentType":5125,"count":36,"max":[35],"min":[0],"normalized":false,"type":"SCALAR"},{"bufferView":30,"byteOffset":0,"componentType":5126,"count":36,"max":[0.05,0.5,0.05],"min":[-0.05,-0.5,-0.05],"normalized":false,"type":"VEC3"},{"bufferView":31,"byteOffset":0,"componentType":5126,"count":36,"max":[0,0,0.015998,-1],"min":[-0.999969,-0.999872,-1,-1],"normalized":false,"type":"VEC4"},{"bufferView":32,"byteOffset":0,"componentType":5126,"count":36,"max":[1,1,1],"min":[-1,-1,-1],"normalized":false,"type":"VEC3"},{"bufferView":33,"byteOffset":0,"componentType":5126,"count":36,"max":[1,1],"min":[0,0],"normalized":false,"type":"VEC2"},{"bufferView":34,"byteOffset":0,"componentType":5125,"count":36,"max":[35],"min":[0],"normalized":false,"type":"SCALAR"},{"bufferView":35,"byteOffset":0,"componentType":5126,"count":36,"max":[0.05,0.5,0.05],"min":[-0.05,-0.5,-0.05],"normalized":false,"type":"VEC3"},{"bufferView":36,"byteOffset":0,"componentType":5126,"count":36,"max":[0,0,0.015998,-1],"min":[-0.999969,-0.999872,-1,-1],"normalized":false,"type":"VEC4"},{"bufferView":37,"byteOffset":0,"componentType":5126,"count":36,"max":[1,1,1],"min":[-1,-1,-1],"normalized":false,"type":"VEC3"},{"bufferView":38,"byteOffset":0,"componentType":5126,"count":36,"max":[1,1],"min":[0,0],"normalized":false,"type":"VEC2"},{"bufferView":39,"byteOffset":0,"componentType":5125,"count":36,"max":[35],"min":[0],"normalized":false,"type":"SCALAR"},{"bufferView":40,"byteOffset":0,"componentType":5126,"count":36,"max":[0.05,0.5,0.05],"min":[-0.05,-0.5,-0.05],"normalized":false,"type":"VEC3"},{"bufferView":41,"byteOffset":0,"componentType":5126,"count":36,"max":[0,0,0.015998,-1],"min":[-0.999969,-0.999872,-1,-1],"normalized":false,"type":"VEC4"},{"bufferView":42,"byteOffset":0,"componentType":5126,"count":36,"max":[1,1,1],"min":[-1,-1,-1],"normalized":false,"type":"VEC3"},{"bufferView":43,"byteOffset":0,"componentType":5126,"count":36,"max":[1,1],"min":[0,0],"normalized":false,"type":"VEC2"},{"bufferView":44,"byteOffset":0,"componentType":5125,"count":36,"max":[35],"min":[0],"normalized":false,"type":"SCALAR"},{"bufferView":45,"byteOffset":0,"componentType":5126,"count":36,"max":[0.05,1,0.05],"min":[-0.05,-1,-0.05],"normalized":false,"type":"VEC3"},{"bufferView":46,"byteOffset":0,"componentType":5126,"count":36,"max":[0,0,0.015998,-1],"min":[-0.999969,-0.999872,-1,-1],"normalized":false,"type":"VEC4"},{"bufferView":47,"byteOffset":0,"componentType":5126,"count":36,"max":[1,1,1],"min":[-1,-1,-1],"normalized":false,"type":"VEC3"},{"bufferView":48,"byteOffset":0,"componentType":5126,"count":36,"max":[1,1],"min":[0,0],"normalized":false,"type":"VEC2"},{"bufferView":49,"byteOffset":0,"componentType":5125,"count":36,"max":[35],"min":[0],"normalized":false,"type":"SCALAR"},{"bufferView":50,"byteOffset":0,"componentType":5126,"count":36,"max":[0.05,1,0.05],"min":[-0.05,-1,-0.05],"normalized":false,"type":"VEC3"},{"bufferView":51,"byteOffset":0,"componentType":5126,"count":36,"max":[0,0,0.015998,-1],"min":[-0.999969,-0.999872,-1,-1],"normalized":false,"type":"VEC4"},{"bufferView":52,"byteOffset":0,"componentType":5126,"count":36,"max":[1,1,1],"min":[-1,-1,-1],"normalized":false,"type":"VEC3"},{"bufferView":53,"byteOffset":0,"componentType":5126,"count":36,"max":[1,1],"min":[0,0],"normalized":false,"type":"VEC2"},{"bufferView":54,"byteOffset":0,"componentType":5125,"count":36,"max":[35],"min":[0],"normalized":false,"type":"SCALAR"},{"bufferView":55,"byteOffset":0,"componentType":5126,"count":36,"max":[0.05,0.5,0.05],"min":[-0.05,-0.5,-0.05],"normalized":false,"type":"VEC3"},{"bufferView":56,"byteOffset":0,"componentType":5126,"count":36,"max":[0,0,0.015998,-1],"min":[-0.999969,-0.999872,-1,-1],"normalized":false,"type":"VEC4"},{"bufferView":57,"byteOffset":0,"componentType":5126,"count":36,"max":[1,1,1],"min":[-1,-1,-1],"normalized":false,"type":"VEC3"},{"bufferView":58,"byteOffset":0,"componentType":5126,"count":36,"max":[1,1],"min":[0,0],"normalized":false,"type":"VEC2"},{"bufferView":59,"byteOffset":0,"componentType":5125,"count":36,"max":[35],"min":[0],"normalized":false,"type":"SCALAR"},{"bufferView":60,"byteOffset":0,"componentType":5126,"count":36,"max":[0.05,0.5,0.05],"min":[-0.05,-0.5,-0.05],"normalized":false,"type":"VEC3"},{"bufferView":61,"byteOffset":0,"componentType":5126,"count":36,"max":[0,0,0.015998,-1],"min":[-0.999969,-0.999872,-1,-1],"normalized":false,"type":"VEC4"},{"bufferView":62,"byteOffset":0,"componentType":5126,"count":36,"max":[1,1,1],"min":[-1,-1,-1],"normalized":false,"type":"VEC3"},{"bufferView":63,"byteOffset":0,"componentType":5126,"count":36,"max":[1,1],"min":[0,0],"normalized":false,"type":"VEC2"},{"bufferView":64,"byteOffset":0,"componentType":5125,"count":36,"max":[35],"min":[0],"normalized":false,"type":"SCALAR"},{"bufferView":65,"byteOffset":0,"componentType":5126,"count":36,"max":[0.05,0.5,0.05],"min":[-0.05,-0.5,-0.05],"normalized":false,"type":"VEC3"},{"bufferView":66,"byteOffset":0,"componentType":5126,"count":36,"max":[0,0,0.015998,-1],"min":[-0.999969,-0.999872,-1,-1],"normalized":false,"type":"VEC4"},{"bufferView":67,"byteOffset":0,"componentType":5126,"count":36,"max":[1,1,1],"min":[-1,-1,-1],"normalized":false,"type":"VEC3"},{"bufferView":68,"byteOffset":0,"componentType":5126,"count":36,"max":[1,1],"min":[0,0],"normalized":false,"type":"VEC2"},{"bufferView":69,"byteOffset":0,"componentType":5125,"count":36,"max":[35],"min":[0],"normalized":false,"type":"SCALAR"},{"bufferView":70,"byteOffset":0,"componentType":5126,"count":36,"max":[0.05,0.5,0.05],"min":[-0.05,-0.5,-0.05],"normalized":false,"type":"VEC3"},{"bufferView":71,"byteOffset":0,"componentType":5126,"count":36,"max":[0,0,0.015998,-1],"min":[-0.999969,-0.999872,-1,-1],"normalized":false,"type":"VEC4"},{"bufferView":72,"byteOffset":0,"componentType":5126,"count":36,"max":[1,1,1],"min":[-1,-1,-1],"normalized":false,"type":"VEC3"},{"bufferView":73,"byteOffset":0,"componentType":5126,"count":36,"max":[1,1],"min":[0,0],"normalized":false,"type":"VEC2"},{"bufferView":74,"byteOffset":0,"componentType":5125,"count":36,"max":[35],"min":[0],"normalized":false,"type":"SCALAR"},{"bufferView":75,"byteOffset":0,"componentType":5126,"count":36,"max":[0.05,0.5,0.05],"min":[-0.05,-0.5,-0.05],"normalized":false,"type":"VEC3"},{"bufferView":76,"byteOffset":0,"componentType":5126,"count":36,"max":[0,0,0.015998,-1],"min":[-0.999969,-0.999872,-1,-1],"normalized":false,"type":"VEC4"},{"bufferView":77,"byteOffset":0,"componentType":5126,"count":36,"max":[1,1,1],"min":[-1,-1,-1],"normalized":false,"type":"VEC3"},{"bufferView":78,"byteOffset":0,"componentType":5126,"count":36,"max":[1,1],"min":[0,0],"normalized":false,"type":"VEC2"},{"bufferView":79,"byteOffset":0,"componentType":5125,"count":36,"max":[35],"min":[0],"normalized":false,"type":"SCALAR"},{"bufferView":80,"byteOffset":0,"componentType":5126,"count":36,"max":[0.05,0.5,0.05],"min":[-0.05,-0.5,-0.05],"normalized":false,"type":"VEC3"},{"bufferView":81,"byteOffset":0,"componentType":5126,"count":36,"max":[0,0,0.015998,-1],"min":[-0.999969,-0.999872,-1,-1],"normalized":false,"type":"VEC4"},{"bufferView":82,"byteOffset":0,"componentType":5126,"count":36,"max":[1,1,1],"min":[-1,-1,-1],"normalized":false,"type":"VEC3"},{"bufferView":83,"byteOffset":0,"componentType":5126,"count":36,"max":[1,1],"min":[0,0],"normalized":false,"type":"VEC2"},{"bufferView":84,"byteOffset":0,"componentType":5125,"count":36,"max":[35],"min":[0],"normalized":false,"type":"SCALAR"}],"asset":{"generator":"Godot Engine v3.5.1.stable.official@6fed1ffa313c6760fa88b368ae580378daaef0f0","version":"2.0"},"bufferViews":[{"buffer":0,"byteLength":112500,"byteOffset":0},{"buffer":0,"byteLength":150000,"byteOffset":112500},{"buffer":0,"byteLength":112500,"byteOffset":262500},{"buffer":0,"byteLength":75000,"byteOffset":375000},{"buffer":0,"byteLength":37500,"byteOffset":450000},{"buffer":0,"byteLength":432,"byteOffset":487500},{"buffer":0,"byteLength":576,"byteOffset":487932},{"buffer":0,"byteLength":432,"byteOffset":488508},{"buffer":0,"byteLength":288,"byteOffset":488940},{"buffer":0,"byteLength":144,"byteOffset":489228},{"buffer":0,"byteLength":432,"byteOffset":489372},{"buffer":0,"byteLength":576,"byteOffset":489804},{"buffer":0,"byteLength":432,"byteOffset":490380},{"buffer":0,"byteLength":288,"byteOffset":490812},{"buffer":0,"byteLength":144,"byteOffset":491100},{"buffer":0,"byteLength":432,"byteOffset":491244},{"buffer":0,"byteLength":576,"byteOffset":491676},{"buffer":0,"byteLength":432,"byteOffset":492252},{"buffer":0,"byteLength":288,"byteOffset":492684},{"buffer":0,"byteLength":144,"byteOffset":492972},{"buffer":0,"byteLength":432,"byteOffset":493116},{"buffer":0,"byteLength":576,"byteOffset":493548},{"buffer":0,"byteLength":432,"byteOffset":494124},{"buffer":0,"byteLength":288,"byteOffset":494556},{"buffer":0,"byteLength":144,"byteOffset":494844},{"buffer":0,"byteLength":432,"byteOffset":494988},{"buffer":0,"byteLength":576,"byteOffset":495420},{"buffer":0,"byteLength":432,"byteOffset":495996},{"buffer":0,"byteLength":288,"byteOffset":496428},{"buffer":0,"byteLength":144,"byteOffset":496716},{"buffer":0,"byteLength":432,"byteOffset":496860},{"buffer":0,"byteLength":576,"byteOffset":497292},{"buffer":0,"byteLength":432,"byteOffset":497868},{"buffer":0,"byteLength":288,"byteOffset":498300},{"buffer":0,"byteLength":144,"byteOffset":498588},{"buffer":0,"byteLength":432,"byteOffset":498732},{"buffer":0,"byteLength":576,"byteOffset":499164},{"buffer":0,"byteLength":432,"byteOffset":499740},{"buffer":0,"byteLength":288,"byteOffset":500172},{"buffer":0,"byteLength":144,"byteOffset":500460},{"buffer":0,"byteLength":432,"byteOffset":500604},{"buffer":0,"byteLength":576,"byteOffset":501036},{"buffer":0,"byteLength":432,"byteOffset":501612},{"buffer":0,"byteLength":288,"byteOffset":502044},{"buffer":0,"byteLength":144,"byteOffset":502332},{"buffer":0,"byteLength":432,"byteOffset":502476},{"buffer":0,"byteLength":576,"byteOffset":502908},{"buffer":0,"byteLength":432,"byteOffset":503484},{"buffer":0,"byteLength":288,"byteOffset":503916},{"buffer":0,"byteLength":144,"byteOffset":504204},{"buffer":0,"byteLength":432,"byteOffset":504348},{"buffer":0,"byteLength":576,"byteOffset":504780},{"buffer":0,"byteLength":432,"byteOffset":505356},{"buffer":0,"byteLength":288,"byteOffset":505788},{"buffer":0,"byteLength":144,"byteOffset":506076},{"buffer":0,"byteLength":432,"byteOffset":506220},{"buffer":0,"byteLength":576,"byteOffset":506652},{"buffer":0,"byteLength":432,"byteOffset":507228},{"buffer":0,"byteLength":288,"byteOffset":507660},{"buffer":0,"byteLength":144,"byteOffset":507948},{"buffer":0,"byteLength":432,"byteOffset":508092},{"buffer":0,"byteLength":576,"byteOffset":508524},{"buffer":0,"byteLength":432,"byteOffset":509100},{"buffer":0,"byteLength":288,"byteOffset":509532},{"buffer":0,"byteLength":144,"byteOffset":509820},{"buffer":0,"byteLength":432,"byteOffset":509964},{"buffer":0,"byteLength":576,"byteOffset":510396},{"buffer":0,"byteLength":432,"byteOffset":510972},{"buffer":0,"byteLength":288,"byteOffset":511404},{"buffer":0,"byteLength":144,"byteOffset":511692},{"buffer":0,"byteLength":432,"byteOffset":511836},{"buffer":0,"byteLength":576,"byteOffset":512268},{"buffer":0,"byteLength":432,"byteOffset":512844},{"buffer":0,"byteLength":288,"byteOffset":513276},{"buffer":0,"byteLength":144,"byteOffset":513564},{"buffer":0,"byteLength":432,"byteOffset":513708},{"buffer":0,"byteLength":576,"byteOffset":514140},{"buffer":0,"byteLength":432,"byteOffset":514716},{"buffer":0,"byteLength":288,"byteOffset":515148},{"buffer":0,"byteLength":144,"byteOffset":515436},{"buffer":0,"byteLength":432,"byteOffset":515580},{"buffer":0,"byteLength":576,"byteOffset":516012},{"buffer":0,"byteLength":432,"byteOffset":516588},{"buffer":0,"byteLength":288,"byteOffset":517020},{"buffer":0,"byteLength":144,"byteOffset":517308}],"buffers":[{"byteLength":517452,"uri":"test-house-walls0.bin"}],"extensionsRequired":["KHR_texture_transform"],"extensionsUsed":["KHR_lights_punctual","KHR_texture_transform"],"meshes":[{"extras":{"targetNames":[]},"primitives":[{"attributes":{"NORMAL":2,"POSITION":0,"TANGENT":1,"TEXCOORD_0":3},"indices":4,"mode":4}]},{"extras":{"targetNames":[]},"primitives":[{"attributes":{"NORMAL":7,"POSITION":5,"TANGENT":6,"TEXCOORD_0":8},"indices":9,"mode":4}]},{"extras":{"targetNames":[]},"primitives":[{"attributes":{"NORMAL":12,"POSITION":10,"TANGENT":11,"TEXCOORD_0":13},"indices":14,"mode":4}]},{"extras":{"targetNames":[]},"primitives":[{"attributes":{"NORMAL":17,"POSITION":15,"TANGENT":16,"TEXCOORD_0":18},"indices":19,"mode":4}]},{"extras":{"targetNames":[]},"primitives":[{"attributes":{"NORMAL":22,"POSITION":20,"TANGENT":21,"TEXCOORD_0":23},"indices":24,"mode":4}]},{"extras":{"targetNames":[]},"primitives":[{"attributes":{"NORMAL":27,"POSITION":25,"TANGENT":26,"TEXCOORD_0":28},"indices":29,"mode":4}]},{"extras":{"targetNames":[]},"primitives":[{"attributes":{"NORMAL":32,"POSITION":30,"TANGENT":31,"TEXCOORD_0":33},"indices":34,"mode":4}]},{"extras":{"targetNames":[]},"primitives":[{"attributes":{"NORMAL":37,"POSITION":35,"TANGENT":36,"TEXCOORD_0":38},"indices":39,"mode":4}]},{"extras":{"targetNames":[]},"primitives":[{"attributes":{"NORMAL":42,"POSITION":40,"TANGENT":41,"TEXCOORD_0":43},"indices":44,"mode":4}]},{"extras":{"targetNames":[]},"primitives":[{"attributes":{"NORMAL":47,"POSITION":45,"TANGENT":46,"TEXCOORD_0":48},"indices":49,"mode":4}]},{"extras":{"targetNames":[]},"primitives":[{"attributes":{"NORMAL":52,"POSITION":50,"TANGENT":51,"TEXCOORD_0":53},"indices":54,"mode":4}]},{"extras":{"targetNames":[]},"primitives":[{"attributes":{"NORMAL":57,"POSITION":55,"TANGENT":56,"TEXCOORD_0":58},"indices":59,"mode":4}]},{"extras":{"targetNames":[]},"primitives":[{"attributes":{"NORMAL":62,"POSITION":60,"TANGENT":61,"TEXCOORD_0":63},"indices":64,"mode":4}]},{"extras":{"targetNames":[]},"primitives":[{"attributes":{"NORMAL":67,"POSITION":65,"TANGENT":66,"TEXCOORD_0":68},"indices":69,"mode":4}]},{"extras":{"targetNames":[]},"primitives":[{"attributes":{"NORMAL":72,"POSITION":70,"TANGENT":71,"TEXCOORD_0":73},"indices":74,"mode":4}]},{"extras":{"targetNames":[]},"primitives":[{"attributes":{"NORMAL":77,"POSITION":75,"TANGENT":76,"TEXCOORD_0":78},"indices":79,"mode":4}]},{"extras":{"targetNames":[]},"primitives":[{"attributes":{"NORMAL":82,"POSITION":80,"TANGENT":81,"TEXCOORD_0":83},"indices":84,"mode":4}]}],"nodes":[{"children":[1,15,17,19,22,25,27,28,29,31,33,35],"extensions":{},"mesh":0,"name":"walls2"},{"children":[2,3,4,5,6,7,8,9,10,11,12,13,14],"extensions":{},"name":"exterior_walls","translation":[0,2.38517,-3.26608]},{"extensions":{},"name":"interior_space","translation":[0.180747,0.00158,-0.10354]},{"extensions":{},"name":"entrance","translation":[0,-0.52662,13.0656]},{"extensions":{},"name":"window1","translation":[7.01036,0.06201,12.7069]},{"extensions":{},"name":"window2","translation":[-6.5361,0.06201,12.7069]},{"extensions":{},"name":"window3","translation":[-13.2476,0.06201,7.84766]},{"extensions":{},"name":"window4","translation":[-9.74116,0.525232,-12.9892]},{"extensions":{},"name":"window11","translation":[4.67306,0.525232,-12.9892]},{"extensions":{},"name":"window5","translation":[11.0306,0.355989,-12.9019]},{"extensions":{},"name":"window6","translation":[13.4487,0.06201,7.97069]},{"extensions":{},"name":"window7","translation":[7.01036,6.71922,12.7069]},{"extensions":{},"name":"window8","translation":[-6.5361,6.71922,12.7069]},{"extensions":{},"name":"window9","translation":[-13.175,6.71922,-2.60302]},{"extensions":{},"name":"window10","translation":[13.8892,6.71922,-2.60302]},{"children":[16],"extensions":{},"name":"kitchen_wall","translation":[-2.56334,3.31411,1.31]},{"extensions":{},"name":"kitchen_entrance","translation":[-0.23599,-1.42318,2.34743]},{"children":[18],"extensions":{},"name":"bathroom_wall","translation":[-7.1611,3.31411,-9.0068]},{"extensions":{},"name":"bathroom_entrance","translation":[-0.23599,-1.42318,0.089229]},{"children":[20,21],"extensions":{},"name":"bedroom_wall","translation":[7.31604,3.31411,-9.0068]},{"extensions":{},"name":"toilet_bedroom_wall","translation":[-1.02105,0,-4.65233]},{"extensions":{},"name":"bedroom_entrance","translation":[-0.23599,-1.42318,0.089229]},{"children":[23,24],"extensions":{},"name":"hidden_room_wall","translation":[-4.33572,3.31411,-13.6591]},{"extensions":{},"name":"hidden_entrance","translation":[-0.23599,-1.42318,0.089229]},{"extensions":{},"name":"hidden_room_wall2","translation":[7.18281,0,0]},{"children":[26],"extensions":{},"name":"living_room_wall","translation":[2.7888,3.35867,1.31]},{"extensions":{},"name":"living_room_entrance","translation":[0.27234,-1.46774,2.34743]},{"extensions":{},"name":"living_back_wall","translation":[7.99332,3.31469,-6.72199]},{"extensions":{},"name":"kitchen_back_wall","translation":[-7.81654,3.31469,-6.72199]},{"children":[30],"extensions":{},"name":"corridor_cross_wall","translation":[0.226745,3.31469,-11.1808]},{"extensions":{},"name":"toilets_entrance","translation":[4.28912,-1.42318,0.094329]},{"children":[32],"extensions":{},"name":"floor1","translation":[0,0,-3.25022]},{"extensions":{},"name":"basement_entrance","translation":[0.222157,0.080122,-0.09937]},{"children":[34],"extensions":{},"name":"floor2","translation":[0,6.62786,-3.25022]},{"extensions":{},"name":"attic_entrance","translation":[8.9561,-0.36415,0.69561]},{"children":[36],"extensions":{},"name":"front_porch","translation":[0,-0.104329,11.1506]},{"children":[37,38,39,40,41,42,43,44,45,46,47,48,49,50,51,52,53,54],"extensions":{},"name":"ladder","rotation":[-0.171981,0,0,0.9851],"translation":[0,-3.61047,2.63428]},{"extensions":{},"mesh":1,"name":"CSGBox2","translation":[0.514822,1,0]},{"extensions":{},"mesh":2,"name":"CSGBox23","translation":[-0.485178,1,0]},{"extensions":{},"mesh":3,"name":"CSGBox32","rotation":[0,0,0.707107,0.707107],"translation":[0.014822,0.1,0]},{"extensions":{},"mesh":4,"name":"CSGBox42","rotation":[0,0,0.707107,0.707107],"translation":[0.014822,0.45307,0]},{"extensions":{},"mesh":5,"name":"CSGBox52","rotation":[0,0,0.707107,0.707107],"translation":[0.014822,0.857287,0]},{"extensions":{},"mesh":6,"name":"CSGBox62","rotation":[0,0,0.707107,0.707107],"translation":[0.014822,1.20959,0]},{"extensions":{},"mesh":7,"name":"CSGBox72","rotation":[0,0,0.707107,0.707107],"translation":[0.014822,1.58903,0]},{"extensions":{},"mesh":8,"name":"CSGBox82","rotation":[0,0,0.707107,0.707107],"translation":[0.014822,1.93619,0]},{"extensions":{},"mesh":9,"name":"CSGBox92","translation":[0.514822,2.99528,0]},{"extensions":{},"mesh":10,"name":"CSGBox102","translation":[-0.485178,2.99528,0]},{"extensions":{},"mesh":11,"name":"CSGBox112","rotation":[0,0,0.707107,0.707107],"translation":[0.014822,2.09528,0]},{"extensions":{},"mesh":12,"name":"CSGBox122","rotation":[0,0,0.707107,0.707107],"translation":[0.014822,2.44835,0]},{"extensions":{},"mesh":13,"name":"CSGBox132","rotation":[0,0,0.707107,0.707107],"translation":[0.014822,2.85256,0]},{"extensions":{},"mesh":14,"name":"CSGBox142","rotation":[0,0,0.707107,0.707107],"translation":[0.014822,3.20487,0]},{"extensions":{},"mesh":15,"name":"CSGBox152","rotation":[0,0,0.707107,0.707107],"translation":[0.014822,3.58431,0]},{"extensions":{},"mesh":16,"name":"CSGBox162","rotation":[0,0,0.707107,0.707107],"translation":[0.014822,3.93146,0]},{"extensions":{},"name":"CollisionShape","translation":[0.024158,1.97327,0]},{"children":[55],"extensions":{},"name":"climbing_area"},{"extensions":{},"name":"CollisionShape2","translation":[0,3.91477,0.354035]}],"scene":0,"scenes":[{"nodes":[0]}]}